<svg id="Layer_1" data-name="Layer 1" xmlns="http://www.w3.org/2000/svg" xmlns:xlink="http://www.w3.org/1999/xlink" viewBox="0 0 444.2 140.4"><defs><style>.cls-1{fill:none;}.cls-2{clip-path:url(#clip-path);}.cls-3{fill:#f7931e;}.cls-4{fill:#fff;}</style><clipPath id="clip-path" transform="translate(-258.8 -261.06)"><rect class="cls-1" x="251" y="253.26" width="156" height="156"/></clipPath></defs><title>logo_white</title><g id="backup"><g class="cls-2"><g class="cls-2"><path class="cls-3" d="M279.36,281.62a70.2,70.2,0,0,0,99.28,99.28l-9.19-9.19,0,0-24.35-24.35,0,0-7.49-7.49Q334.44,343,331.1,346l-8.47,7.58c-1.22,1.22-3,1.43-3.95.48l-12.5-12.5c-1-1-.74-2.73.48-3.95l7.58-8.47a160.59,160.59,0,0,1,12.63-12.63l8.47-7.58c1.22-1.22,3-1.43,3.95-.48l12.5,12.5c1,1,.74,2.73-0.48,3.95l-4.84,5.41,7.5,7.5,0.06-.07L365,325.17a4.6,4.6,0,0,0,0-6.49L341.58,295.3a4.6,4.6,0,0,0-6.49,0l-12.6,10.93A184.92,184.92,0,0,0,304,324.75L293,337.35a4.6,4.6,0,0,0,0,6.49l23.38,23.38a4.6,4.6,0,0,0,6.49,0l12.6-10.93,0.05,0,23.62,23.62a57.2,57.2,0,1,1,18.41-18.4l9.39,9.39a70.2,70.2,0,0,0-107.62-89.23" transform="translate(-258.8 -261.06)"/></g></g><path class="cls-4" d="M463.34,309.46a22.5,22.5,0,0,1-2,9.83,17.13,17.13,0,0,1-5.55,6.7l7.34,5.27-5.8,4.69-9.41-6.9a21.79,21.79,0,0,1-3.34.25,19.72,19.72,0,0,1-9.8-2.41,16.6,16.6,0,0,1-6.68-6.89,22,22,0,0,1-2.4-10.3v-2a22.48,22.48,0,0,1,2.35-10.5,16.55,16.55,0,0,1,6.65-7,21.08,21.08,0,0,1,19.63,0,16.55,16.55,0,0,1,6.65,7,22.42,22.42,0,0,1,2.35,10.47v1.8Zm-9.22-1.83q0-6.35-2.49-9.65a9.3,9.3,0,0,0-14.17,0q-2.49,3.26-2.52,9.55v2q0,6.18,2.49,9.59a9.2,9.2,0,0,0,14.2.13q2.46-3.29,2.49-9.58v-2Z" transform="translate(-258.8 -261.06)"/><path class="cls-4" d="M489.11,325.68q-3.25,3.6-9,3.61-5.28,0-8.06-2.77t-2.84-8.12V298.73H478v19.4q0,4.69,4.67,4.69,4.46,0,6.13-2.83V298.73h8.8v30h-8.25Z" transform="translate(-258.8 -261.06)"/><path class="cls-4" d="M516.48,317.39l6.07-18.66H532l-13.2,34.66L518,335a10.07,10.07,0,0,1-9.71,5.88,15,15,0,0,1-3.88-.53v-6.07l1.34,0a7.79,7.79,0,0,0,3.72-.69,4.64,4.64,0,0,0,1.93-2.3l1-2.47-11.5-30.08h9.44Z" transform="translate(-258.8 -261.06)"/><path class="cls-4" d="M550.52,329.29q-7.22,0-11.76-4a13.74,13.74,0,0,1-4.54-10.79v-0.78a16.84,16.84,0,0,1,1.91-8.08,13.32,13.32,0,0,1,5.42-5.49,16.33,16.33,0,0,1,8-1.93q6.74,0,10.61,3.88t3.87,11v3.27H543.12a7.23,7.23,0,0,0,2.56,4.71,8.2,8.2,0,0,0,5.42,1.77,9.84,9.84,0,0,0,7.92-3.36l4.31,4.41a13,13,0,0,1-5.34,4A18.93,18.93,0,0,1,550.52,329.29ZM546,288.36H551l8.65,6.36h-6.55l-4.58-3.49-4.58,3.49h-6.52Zm3.49,16.28a5.74,5.74,0,0,0-4.23,1.62,8,8,0,0,0-2.08,4.62h12.2v-0.64a5.67,5.67,0,0,0-1.58-4.14A6,6,0,0,0,549.52,304.64Zm12.81-21.16h7L562.45,291h-5.07Z" transform="translate(-258.8 -261.06)"/><path class="cls-4" d="M579.5,291.35v7.38h5.61v5.88H579.5v15a3.35,3.35,0,0,0,.7,2.38,3.73,3.73,0,0,0,2.67.72,15.22,15.22,0,0,0,2.58-.19v6.07a19.64,19.64,0,0,1-5.31.72q-9.22,0-9.41-8.51V304.61h-4.79v-5.88h4.79v-7.38h8.77Z" transform="translate(-258.8 -261.06)"/><path class="cls-4" d="M638.4,294.54h-5.7v34.19h-5.16l-0.27-3.22q-3.37,3.77-9.38,3.77a11.6,11.6,0,0,1-9.3-4.27q-3.6-4.27-3.6-11.15v-0.39q0-6.9,3.58-11.1a11.73,11.73,0,0,1,9.38-4.2,11.9,11.9,0,0,1,9.13,3.6v-7.24h-8v-4.19h8v-4.21h5.61v4.21h5.7v4.19Zm-27.8,19.52q0,5.1,2.31,8a7.71,7.71,0,0,0,6.37,2.88,8.3,8.3,0,0,0,7.8-4.38V306.77a8.39,8.39,0,0,0-7.74-4.24,7.74,7.74,0,0,0-6.43,2.91Q610.6,308.35,610.6,314.06Z" transform="translate(-258.8 -261.06)"/><path class="cls-4" d="M663.74,328.73a10,10,0,0,1-.79-3.16,13.1,13.1,0,0,1-9.35,3.72,12.28,12.28,0,0,1-8-2.51,7.83,7.83,0,0,1-3.11-6.36,8.26,8.26,0,0,1,3.9-7.28q3.9-2.59,11-2.59h5.46v-2.36a5.5,5.5,0,0,0-1.76-4.28,7.5,7.5,0,0,0-5.19-1.59,8.74,8.74,0,0,0-5,1.39,4,4,0,0,0-2,3.36h-5.64a6.72,6.72,0,0,1,1.74-4.34,11.85,11.85,0,0,1,4.73-3.31,17.24,17.24,0,0,1,6.57-1.22q5.67,0,8.89,2.59a9,9,0,0,1,3.34,7.14v13.81a15.58,15.58,0,0,0,1.15,6.57v0.44h-5.89ZM654.57,287h4.61l8.8,7.28h-6l-5.13-4.41-5.16,4.41h-6Zm-0.15,37.82a10.59,10.59,0,0,0,5-1.25,7.91,7.91,0,0,0,3.43-3.24v-6.16h-4.4q-10.32,0-10.32,5.52a4.49,4.49,0,0,0,1.76,3.77A7.18,7.18,0,0,0,654.42,324.82ZM670,282.2h6.07l-6.1,7.18h-4.28Z" transform="translate(-258.8 -261.06)"/><path class="cls-4" d="M697.54,325.76q-3.28,3.52-9.62,3.52-5.25,0-8-2.79t-2.78-8.25V298.73h5.61v19.38q0,6.82,6.07,6.82,6.43,0,8.56-4.38V298.73H703v30h-5.34Z" transform="translate(-258.8 -261.06)"/><path class="cls-4" d="M426.15,366.13V353.22h2.09V366.1c0,4.24,2.55,6.82,7.27,6.82s7.27-2.58,7.27-6.82V353.22h2.09v12.91c0,5.18-3.16,8.42-9.35,8.42S426.15,371.28,426.15,366.13Z" transform="translate(-258.8 -261.06)"/><path class="cls-4" d="M449.93,378.6a4.89,4.89,0,0,0,1.51.25,2.63,2.63,0,0,0,2.63-1.85l1.37-2.7L448.09,359h2.09l6.33,13.26L462.77,359h2.12l-9,18.5a4.61,4.61,0,0,1-4.46,2.83,8.26,8.26,0,0,1-1.83-.22Z" transform="translate(-258.8 -261.06)"/><path class="cls-4" d="M477.73,371.25V360.44h-2.88V359h2.88v-4.15h1.91V359h3.53v1.45h-3.53V371c0,1.22.58,2.07,1.8,2.07a2.91,2.91,0,0,0,1.94-.72l0.72,1.26a4.23,4.23,0,0,1-2.95.94C478.84,374.55,477.73,373.33,477.73,371.25Z" transform="translate(-258.8 -261.06)"/><path class="cls-4" d="M487.83,356.71h-1.58l5.54-4.52H494Zm-0.57,17.47V359h1.87v15.17h-1.87Z" transform="translate(-258.8 -261.06)"/><path class="cls-4" d="M506.68,374.17V363.9c0-2.92-1.69-3.8-4.21-3.8a7.8,7.8,0,0,0-5.65,2.61v11.47H495V359h1.87v2.29a9.31,9.31,0,0,1,6.26-2.67c3.53,0,5.47,1.51,5.47,4.93v10.62h-1.87Z" transform="translate(-258.8 -261.06)"/><path class="cls-4" d="M523.69,374.17v-21h1.87v21h-1.87Z" transform="translate(-258.8 -261.06)"/><path class="cls-4" d="M542.43,374.17v-1.79a8.13,8.13,0,0,1-5.9,2.17c-3,0-6.08-1.79-6.08-5.06s3.06-5,6.08-5a8.07,8.07,0,0,1,5.9,2.17v-3.08c0-2.26-2.09-3.49-4.68-3.49a7.19,7.19,0,0,0-5.43,2.23l-1-1.13a9,9,0,0,1,6.69-2.54c3.53,0,6.33,1.48,6.33,4.87v10.68h-1.87Zm-4.1-17.47-6.19-4.52h2.23l5.54,4.52h-1.58Zm4.1,14.48v-3.33a7,7,0,0,0-5.25-2.1c-2.88,0-4.75,1.6-4.75,3.77s1.87,3.74,4.75,3.74A6.92,6.92,0,0,0,542.43,371.19Z" transform="translate(-258.8 -261.06)"/><path class="cls-4" d="M557.93,372.16l1.11-1.23a7.69,7.69,0,0,0,5.61,2.23c2.91,0,4.64-1.32,4.64-3.08,0-4.15-11-1.82-11-7.26,0-2.33,2.27-4.21,6.19-4.21a8.57,8.57,0,0,1,6.22,2.23l-1,1.16a6.74,6.74,0,0,0-5.18-2c-2.7,0-4.35,1.19-4.35,2.77,0,3.8,11,1.48,11,7.32,0,2.45-2.16,4.46-6.51,4.46A9.05,9.05,0,0,1,557.93,372.16Z" transform="translate(-258.8 -261.06)"/><path class="cls-4" d="M587.68,374.17v-2.23a9.36,9.36,0,0,1-6.26,2.61c-3.56,0-5.47-1.45-5.47-4.87V359h1.87v10.3c0,3,1.69,3.77,4.21,3.77a7.9,7.9,0,0,0,5.65-2.51V359h1.87v1.85a3.93,3.93,0,0,0,2.19-2.92,3.2,3.2,0,0,1-.32,0,1.2,1.2,0,0,1-1.29-1.16,1.26,1.26,0,0,1,1.37-1.16,1.6,1.6,0,0,1,1.58,1.79c0,1.89-1.37,3.61-3.53,4.56v12.19h-1.87Zm-5.29-17.47h-1.58l5.54-4.52h2.23Z" transform="translate(-258.8 -261.06)"/><path class="cls-4" d="M594.37,366.57c0-4.43,3.35-7.95,8.45-7.95A7.56,7.56,0,0,1,609,361.2l-1.29,1a5.79,5.79,0,0,0-4.75-2.11,6.49,6.49,0,1,0,0,13,5.81,5.81,0,0,0,4.75-2.14l1.29,1a7.49,7.49,0,0,1-6.15,2.61C597.71,374.55,594.37,371,594.37,366.57Z" transform="translate(-258.8 -261.06)"/><path class="cls-4" d="M643.14,374.17V363.55c0-2.14-1-3.46-3.49-3.46a6.66,6.66,0,0,0-5,2.58v11.5h-1.91V363.55c0-2.14-1-3.46-3.49-3.46a6.88,6.88,0,0,0-5,2.61v11.47h-1.87V359h1.87v2.29a8,8,0,0,1,5.61-2.67c2.7,0,4.14,1.38,4.57,2.86a7.48,7.48,0,0,1,5.75-2.86c3.2,0,4.75,1.57,4.75,4.62v10.93h-1.87Z" transform="translate(-258.8 -261.06)"/><path class="cls-4" d="M661.87,374.17v-1.79a8.13,8.13,0,0,1-5.9,2.17c-3,0-6.08-1.79-6.08-5.06s3.06-5,6.08-5a8.07,8.07,0,0,1,5.9,2.17v-3.08c0-2.26-2.09-3.49-4.68-3.49a7.19,7.19,0,0,0-5.43,2.23l-1-1.13a9,9,0,0,1,6.69-2.54c3.53,0,6.33,1.48,6.33,4.87v10.68h-1.87Zm0-3v-3.33a7,7,0,0,0-5.25-2.1c-2.88,0-4.75,1.6-4.75,3.77s1.87,3.74,4.75,3.74A6.92,6.92,0,0,0,661.87,371.19Zm-5.9,7.38a1.36,1.36,0,0,1,2.7,0A1.36,1.36,0,0,1,656,378.57Z" transform="translate(-258.8 -261.06)"/><path class="cls-4" d="M681.29,374.17V363.9c0-2.92-1.69-3.8-4.21-3.8a7.8,7.8,0,0,0-5.65,2.61v11.47h-1.87V359h1.87v2.29a9.31,9.31,0,0,1,6.26-2.67c3.53,0,5.47,1.51,5.47,4.93v10.62h-1.87Z" transform="translate(-258.8 -261.06)"/><path class="cls-4" d="M700.72,374.17V363.84c0-2.92-1.69-3.74-4.21-3.74a7.8,7.8,0,0,0-5.65,2.61v11.47H689v-21h1.87v8.08a9.31,9.31,0,0,1,6.26-2.67c3.53,0,5.47,1.45,5.47,4.87v10.68h-1.87Z" transform="translate(-258.8 -261.06)"/></g></svg>